# Blender v2.66 (sub 1) OBJ File: ''
# www.blender.org
mtllib environment.mtl
o Cube
v 11.280001 -11.280001 -11.280000
v 11.280001 -11.280001 11.280001
v -11.280002 -11.280001 11.279999
v -11.279997 -11.280001 -11.280005
v 11.280006 11.280001 -11.279995
v 11.279993 11.280001 11.280007
v -11.280005 11.280001 11.279997
v -11.280000 11.280001 -11.280001
vt 0.250596 0.003927
vt 0.250595 0.332892
vt 0.494915 0.332892
vt 0.250595 0.990823
vt 0.494914 0.990824
vt 0.494915 0.661858
vt 0.983556 0.332891
vt 0.739235 0.332892
vt 0.983556 0.661858
vt 0.739235 0.661859
vt 0.250595 0.661858
vt 0.006276 0.661857
vt 0.006276 0.332892
vt 0.494915 0.003927
vn -0.000000 1.000000 0.000000
vn 0.000000 -1.000000 0.000000
vn -1.000000 0.000000 0.000000
vn 0.000000 0.000000 -1.000000
vn 1.000000 0.000000 0.000000
vn -0.000000 -0.000000 1.000000
vn -1.000000 -0.000000 -0.000001
usemtl Material
s off
f 1/1/1 4/2/1 3/3/1
f 5/4/2 6/5/2 7/6/2
f 1/7/3 2/8/3 5/9/3
f 2/8/4 3/3/4 6/10/4
f 3/3/5 4/2/5 8/11/5
f 5/12/6 8/11/6 1/13/6
f 2/14/1 1/1/1 3/3/1
f 8/11/2 5/4/2 7/6/2
f 2/8/7 6/10/7 5/9/7
f 3/3/4 7/6/4 6/10/4
f 7/6/5 3/3/5 8/11/5
f 8/11/6 4/2/6 1/13/6
