# Blender v2.66 (sub 1) OBJ File: 'crystal_formations.blend'
# www.blender.org
mtllib one_crystal.mtl
o Cone.013_Cone.014
v -0.074012 5.000000 0.836789
v 0.671051 7.000000 0.169796
v 0.004057 5.000000 -0.575268
v 1.416115 5.000000 -0.497198
v 1.338045 5.000000 0.914859
v -0.074012 1.000000 0.836789
v 0.004057 1.000000 -0.575268
v 1.416115 1.000000 -0.497198
v 1.338045 1.000000 0.914859
vn 0.941371 0.333333 0.052047
vn -0.941371 0.333333 -0.052047
vn -0.052047 0.333333 0.941371
vn 0.052047 0.333333 -0.941371
vn 0.998475 -0.000000 0.055204
vn -0.000000 -1.000000 0.000000
vn -0.055204 0.000000 0.998475
vn -0.998475 0.000000 -0.055204
vn 0.055204 0.000000 -0.998475
usemtl Green_Crystal
s off
f 4//1 2//1 5//1
f 1//2 2//2 3//2
f 5//3 2//3 1//3
f 3//4 2//4 4//4
f 4//5 5//5 9//5
f 6//6 7//6 8//6
f 5//7 1//7 9//7
f 1//8 3//8 6//8
f 3//9 4//9 8//9
f 8//5 4//5 9//5
f 9//6 6//6 8//6
f 1//7 6//7 9//7
f 3//8 7//8 6//8
f 7//9 3//9 8//9
o Cone.012_Cone.013
v -0.933402 4.076207 -0.828981
v -0.688945 5.666961 -1.824921
v -0.833275 3.786714 -1.986145
v 0.327874 4.076207 -1.958097
v 0.227747 4.365701 -0.800933
v -0.161041 0.894701 0.033783
v -0.060915 0.605207 -1.123381
v 1.100235 0.894701 -1.095333
v 1.000108 1.184194 0.061831
vn 0.838513 0.541244 -0.062851
vn -0.990597 0.085218 -0.107033
vn -0.154905 0.541244 0.826474
vn 0.002821 0.085218 -0.996358
vn 0.970032 0.241845 0.023431
vn 0.228125 -0.939693 0.254827
vn -0.083647 0.241845 0.966703
vn -0.970032 -0.241845 -0.023431
vn 0.083647 -0.241845 -0.966703
usemtl Purple_Crystal
s off
f 13//10 11//10 14//10
f 10//11 11//11 12//11
f 14//12 11//12 10//12
f 12//13 11//13 13//13
f 13//14 14//14 18//14
f 15//15 16//15 17//15
f 14//16 10//16 18//16
f 10//17 12//17 15//17
f 12//18 13//18 17//18
f 17//14 13//14 18//14
f 18//15 15//15 17//15
f 10//16 15//16 18//16
f 12//17 16//17 15//17
f 16//18 12//18 17//18
o Cone.011_Cone.012
v 0.414668 3.931254 2.198629
v 1.394998 5.374463 2.743729
v 1.015497 4.193896 1.555995
v 1.966607 3.931254 2.009644
v 1.365777 3.668612 2.652277
v 0.094918 1.044837 1.197900
v 0.606775 1.307479 0.276809
v 1.557885 1.044837 0.730458
v 1.046028 0.782194 1.651549
vn 0.739445 -0.048664 0.671455
vn -0.686138 0.613645 -0.390709
vn -0.439259 -0.040588 0.897443
vn 0.479069 0.541244 -0.691048
vn 0.751015 -0.353498 0.557688
vn -0.104097 -0.939693 -0.325794
vn -0.471325 -0.241845 0.848153
vn -0.755419 0.287775 -0.588666
vn 0.476807 0.298834 -0.826652
vn 0.875795 -0.241845 0.417726
vn -0.867794 0.298834 -0.397029
usemtl Yellow
s off
f 22//19 20//19 23//19
f 19//20 20//20 21//20
f 23//21 20//21 19//21
f 21//22 20//22 22//22
f 22//23 23//23 26//23
f 24//24 25//24 27//24
f 23//25 19//25 27//25
f 19//26 21//26 24//26
f 21//27 22//27 26//27
f 23//28 27//28 26//28
f 25//24 26//24 27//24
f 19//25 24//25 27//25
f 21//29 25//29 24//29
f 25//27 21//27 26//27
o Cone.010_Cone.011
v 1.595076 3.712205 -0.657408
v 2.307956 4.221860 -1.295590
v 1.629053 3.545283 -1.553437
v 2.523367 3.719327 -1.488429
v 2.489390 3.886249 -0.592400
v 1.097607 1.561327 -0.212064
v 1.131584 1.394405 -1.108094
v 2.025898 1.227484 -1.043086
v 1.991921 1.394405 -0.147057
vn 0.912515 0.406963 -0.041212
vn -0.665323 0.728981 -0.161031
vn -0.201605 0.862715 0.463765
vn -0.001714 0.357621 -0.933865
vn 0.980523 -0.183013 0.071274
vn -0.192837 -0.965926 0.172631
vn -0.114431 0.226729 0.967212
vn -0.974802 0.209716 -0.076032
vn 0.108969 -0.195926 -0.974545
vn -0.037252 0.183013 0.982405
vn 0.031893 -0.209716 -0.977242
usemtl Red_Crystal
s off
f 31//30 29//30 32//30
f 28//31 29//31 30//31
f 32//32 29//32 28//32
f 30//33 29//33 31//33
f 31//34 32//34 36//34
f 33//35 34//35 36//35
f 32//36 28//36 33//36
f 28//37 30//37 33//37
f 30//38 31//38 35//38
f 35//34 31//34 36//34
f 34//35 35//35 36//35
f 36//39 32//39 33//39
f 30//37 34//37 33//37
f 34//40 30//40 35//40
o Cone.009_Cone.010
v -1.057860 3.012746 1.492839
v -0.716805 4.756464 1.303700
v -0.827693 3.283712 0.665684
v -0.004158 3.389939 0.908486
v -0.234325 3.118973 1.735641
v -0.686268 1.082272 1.286765
v -0.456101 1.188499 0.459610
v 0.367434 1.294727 0.702412
v 0.137267 1.188499 1.529567
vn 0.866918 0.349245 0.355640
vn -0.962815 0.165124 -0.213824
vn -0.298109 0.160373 0.940963
vn 0.217523 0.374160 -0.901492
vn 0.941847 0.136853 0.306913
vn 0.151859 -0.984808 -0.084217
vn -0.261408 -0.152067 0.953174
vn -0.939268 -0.147731 -0.309759
vn 0.263262 0.140563 -0.954429
vn 0.946977 0.152067 0.283038
vn -0.949023 -0.140563 -0.282130
usemtl Crystal
s off
f 40//41 38//41 41//41
f 37//42 38//42 39//42
f 41//43 38//43 37//43
f 39//44 38//44 40//44
f 40//45 41//45 44//45
f 42//46 43//46 44//46
f 41//47 37//47 45//47
f 37//48 39//48 42//48
f 39//49 40//49 43//49
f 41//50 45//50 44//50
f 45//46 42//46 44//46
f 37//47 42//47 45//47
f 39//51 43//51 42//51
f 40//49 44//49 43//49
o Cone.008_Cone.009
v 2.845821 2.725177 0.803240
v 2.502007 4.468895 0.619163
v 2.025965 2.996143 1.058189
v 1.783596 3.102370 0.234526
v 2.603452 2.831404 -0.020422
v 2.471223 0.794703 0.602681
v 1.651367 0.900930 0.857630
v 1.408998 1.007158 0.033967
v 2.228854 0.900930 -0.220982
vn -0.171063 0.349245 -0.921284
vn 0.342219 0.165124 0.924997
vn 0.952322 0.160373 -0.259545
vn -0.875470 0.374160 0.305869
vn -0.248837 0.147731 -0.957213
vn -0.153087 -0.984808 -0.081963
vn 0.942689 -0.152067 -0.297006
vn 0.252626 -0.136853 0.957837
vn -0.944749 0.140563 0.296128
vn -0.277342 0.140563 -0.950433
vn 0.275470 -0.152067 0.949206
usemtl Blue
s off
f 49//52 47//52 50//52
f 46//53 47//53 48//53
f 50//54 47//54 46//54
f 48//55 47//55 49//55
f 49//56 50//56 54//56
f 51//57 52//57 54//57
f 50//58 46//58 51//58
f 46//59 48//59 52//59
f 48//60 49//60 53//60
f 53//61 49//61 54//61
f 52//57 53//57 54//57
f 54//58 50//58 51//58
f 51//62 46//62 52//62
f 52//60 48//60 53//60
o Cone.007_Cone.008
v -1.536246 3.261114 -0.274247
v -1.967431 4.251282 0.363191
v -1.132949 3.441310 0.174833
v -1.499880 3.261114 0.797768
v -1.903178 3.080918 0.348688
v -0.833151 1.280777 -0.432949
v -0.234214 1.460973 -0.028028
v -0.601145 1.280777 0.594907
v -1.200083 1.100582 0.189986
vn -0.733347 -0.048664 0.678111
vn 0.449023 0.613645 -0.649475
vn -0.855744 -0.040588 -0.515805
vn 0.646665 0.541244 0.537474
vn -0.652265 -0.287775 0.701239
vn 0.333627 -0.939693 -0.075306
vn -0.803847 -0.241845 -0.543453
vn 0.621021 0.353498 -0.699552
vn 0.781950 0.298834 0.547040
vn -0.471151 -0.298834 0.829888
vn 0.492466 0.241845 -0.836055
usemtl Orange
s off
f 58//63 56//63 59//63
f 55//64 56//64 57//64
f 59//65 56//65 55//65
f 57//66 56//66 58//66
f 58//67 59//67 63//67
f 60//68 61//68 62//68
f 59//69 55//69 63//69
f 55//70 57//70 61//70
f 57//71 58//71 62//71
f 62//72 58//72 63//72
f 63//68 60//68 62//68
f 55//69 60//69 63//69
f 60//73 55//73 61//73
f 61//71 57//71 62//71
o Icosphere.001_Icosphere.002
v 2.417382 1.071907 0.748547
v 0.493977 1.071906 1.950410
v -1.243422 1.071906 0.492560
v -0.393813 1.071907 -1.610326
v 1.868703 1.071898 -1.452125
v 0.628569 2.264271 0.025809
v 1.436616 0.107239 -1.974152
v 2.457830 0.107239 -1.117252
v 2.780346 0.107239 0.176275
v 2.280951 0.107239 1.412322
v 1.150401 0.107239 2.118768
v -0.179479 0.107239 2.025770
v -1.200693 0.107239 1.168870
v -1.523209 0.107239 -0.124657
v -1.023813 0.107239 -1.360704
v 0.106736 0.107239 -2.067150
v 2.408939 1.241269 -0.418090
v 1.600894 1.241272 1.581874
v -0.550866 1.241268 1.431404
v -1.072699 1.241272 -0.661537
v 0.756566 1.241269 -1.804595
v 1.357500 1.942122 -0.842898
v 1.679999 1.942128 0.450620
v 0.549458 1.942128 1.157053
v -0.471752 1.942128 0.300156
v 0.027632 1.942128 -0.935880
vn 0.829279 0.447218 0.335032
vn 0.825373 0.525712 -0.205786
vn 0.487442 0.850642 0.196936
vn -0.062380 0.447188 0.892239
vn 0.450758 0.525712 0.721366
vn -0.036653 0.850642 0.524430
vn -0.867855 0.447188 0.216376
vn -0.546770 0.525712 0.651631
vn -0.510086 0.850642 0.127171
vn -0.473952 0.447218 -0.758507
vn -0.788690 0.525712 -0.318644
vn -0.278573 0.850642 -0.445814
vn 0.574908 0.447188 -0.685141
vn 0.059328 0.525712 -0.848567
vn 0.337931 0.850642 -0.402722
vn 0.712272 -0.555101 -0.429518
vn 0.299295 -0.555101 -0.776025
vn 0.628590 -0.555101 0.544664
vn 0.830561 -0.555101 0.044832
vn -0.323771 -0.555101 0.766167
vn 0.213965 -0.555101 0.803766
vn -0.828700 -0.555101 -0.071139
vn -0.698294 -0.555101 0.451888
vn -0.188391 -0.555101 -0.810144
vn -0.645558 -0.555101 -0.524461
vn 0.000000 1.000000 0.000000
usemtl Material
s 1
f 64//74 80//75 86//76
f 65//77 81//78 87//79
f 66//80 82//81 88//82
f 67//83 83//84 89//85
f 68//86 84//87 85//88
f 71//89 70//90 68//86
f 73//91 72//92 64//74
f 75//93 74//94 65//77
f 77//95 76//96 66//80
f 79//97 78//98 67//83
f 71//89 72//92 70//90
f 72//92 80//75 64//74
f 72//92 71//89 80//75
f 71//89 68//86 80//75
f 74//94 81//78 65//77
f 74//94 73//91 81//78
f 73//91 64//74 81//78
f 76//96 82//81 66//80
f 76//96 75//93 82//81
f 75//93 65//77 82//81
f 78//98 83//84 67//83
f 78//98 77//95 83//84
f 77//95 66//80 83//84
f 70//90 84//87 68//86
f 70//90 79//97 84//87
f 79//97 67//83 84//87
f 86//76 85//88 69//99
f 86//76 80//75 85//88
f 80//75 68//86 85//88
f 87//79 86//76 69//99
f 87//79 81//78 86//76
f 81//78 64//74 86//76
f 88//82 87//79 69//99
f 88//82 82//81 87//79
f 82//81 65//77 87//79
f 89//85 88//82 69//99
f 89//85 83//84 88//82
f 83//84 66//80 88//82
f 85//88 89//85 69//99
f 85//88 84//87 89//85
f 84//87 67//83 89//85
f 72//92 73//91 70//90
f 73//91 74//94 70//90
f 74//94 75//93 70//90
f 75//93 76//96 70//90
f 76//96 77//95 70//90
f 77//95 78//98 79//97
f 70//90 77//95 79//97
