# Blender v2.70 (sub 0) OBJ File: ''
# www.blender.org
mtllib plane.mtl
o Cube_Cube.001
v -15.000000 -15.000000 15.000000
v -15.000000 -15.000000 -15.000000
v 15.000000 -15.000000 -15.000000
v 15.000000 -15.000000 15.000000
v -15.000000 15.000000 15.000000
v -15.000000 15.000000 -15.000000
v 15.000000 15.000000 -15.000000
v 15.000000 15.000000 15.000000
vn 1.000000 0.000000 0.000000
vn 0.000000 0.000000 1.000000
vn -1.000000 0.000000 0.000000
vn 0.000000 0.000000 -1.000000
vn 0.000000 1.000000 0.000000
vn 0.000000 -1.000000 0.000000
usemtl Material
s off
f 1//1 2//1 6//1
f 2//2 3//2 7//2
f 3//3 4//3 8//3
f 4//4 1//4 5//4
f 4//5 3//5 2//5
f 5//6 6//6 7//6
f 5//1 1//1 6//1
f 6//2 2//2 7//2
f 7//3 3//3 8//3
f 8//4 4//4 5//4
f 1//5 4//5 2//5
f 8//6 5//6 7//6
o Plane
v -5.455860 -5.000000 -1.615209
v 1.615209 -5.000000 5.455859
v -5.455859 5.000000 -1.615209
v 1.615209 5.000000 5.455859
v 0.609558 -5.000000 -7.680625
v 7.680625 -5.000000 -0.609558
v 0.609558 5.000000 -7.680626
v 7.680626 5.000000 -0.609559
vn 0.000000 -0.577349 0.816492
vn 0.000000 0.577349 0.816492
vn -0.816492 0.577349 0.000000
vn 0.000000 0.577349 -0.816492
vn 0.816492 0.577349 0.000000
vn 0.816492 -0.577349 0.000000
vn 0.000000 -0.577349 -0.816492
vn -0.816492 -0.577349 0.000000
usemtl Material2
s 1
f 10//7 12//8 11//9
f 15//10 16//11 14//12
f 16//11 15//10 11//9
f 14//12 16//11 12//8
f 13//13 14//12 10//7
f 15//10 13//13 9//14
f 9//14 10//7 11//9
f 13//13 15//10 14//12
f 12//8 16//11 11//9
f 10//7 14//12 12//8
f 9//14 13//13 10//7
f 11//9 15//10 9//14
