# Blender v2.71 (sub 0) OBJ File: ''
# www.blender.org
mtllib cube.mtl
o Cube
v 1.000000 -1.000000 -1.000000
v 1.000000 -1.000000 1.000000
v -1.000000 -1.000000 1.000000
v -1.000000 -1.000000 -1.000000
v 1.000000 1.000000 -0.999999
v 0.999999 1.000000 1.000001
v -1.000000 1.000000 1.000000
v -1.000000 1.000000 -1.000000
vt 0.507874 0.779151
vt 0.313261 0.779151
vt 0.313262 0.584539
vt 0.313262 0.389927
vt 0.313262 0.195315
vt 0.507874 0.195314
vt 0.507874 0.584539
vt 0.507874 0.389926
vt 0.702487 0.389926
vt 0.702487 0.584539
vt 0.897100 0.389926
vt 0.118649 0.389926
vt 0.897100 0.584539
vt 0.118649 0.584539
vn 0.000000 -1.000000 0.000000
vn 0.000000 1.000000 0.000000
vn 1.000000 -0.000000 0.000000
vn -0.000000 -0.000000 1.000000
vn -1.000000 -0.000000 -0.000000
vn 0.000000 0.000000 -1.000000
usemtl Material
s off
f 2/1/1 3/2/1 4/3/1
f 8/4/2 7/5/2 6/6/2
f 1/7/3 5/8/3 6/9/3
f 2/10/4 6/9/4 7/11/4
f 7/12/5 8/4/5 4/3/5
f 1/7/6 4/3/6 8/4/6
f 1/7/1 2/1/1 4/3/1
f 5/8/2 8/4/2 6/6/2
f 2/10/3 1/7/3 6/9/3
f 3/13/4 2/10/4 7/11/4
f 3/14/5 7/12/5 4/3/5
f 5/8/6 1/7/6 8/4/6
